PathFileType	4	(X/Y/Z)	./resultDataOpenSim/trcMotMarkerGrf/sub10/qtm-04-06.trc
DataRate	CameraRate	NumFrames	NumMarkers	Units	OrigDataRate	OrigDataStartFrame	OrigNumFrames
250.000000	250.000000	7	24	m	250.000000	187	497
Frame#	Time	L.Toe.Tip			R.Toe.Tip			L.Ankle.Lat			R.Ankle.Lat			L.Ankle.Med			R.Ankle.Med			L.Heel			R.Heel			L.Knee.Lat			R.Knee.Lat			L.Knee.Med			R.Knee.Med			L.Thigh.Upper			R.Thigh.Upper			L.ASIS			R.ASIS			V.Sacral			L.Acromium			R.Acromium			C7			L.Elbow			R.Elbow			L.Wrist.Lat			R.Wrist.Lat
		X1	Y1	Z1	X2	Y2	Z2	X3	Y3	Z3	X4	Y4	Z4	X5	Y5	Z5	X6	Y6	Z6	X7	Y7	Z7	X8	Y8	Z8	X9	Y9	Z9	X10	Y10	Z10	X11	Y11	Z11	X12	Y12	Z12	X13	Y13	Z13	X14	Y14	Z14	X15	Y15	Z15	X16	Y16	Z16	X17	Y17	Z17	X18	Y18	Z18	X19	Y19	Z19	X20	Y20	Z20	X21	Y21	Z21	X22	Y22	Z22	X23	Y23	Z23	X24	Y24	Z24

187	0.744	0.023119469	-0.034016593	-0.11304691	-0.71863587	0.037682734	0.00053362029	-0.10916611	-0.0052258721	-0.16263398	-0.77509385	0.16695033	0.029570812	-0.11782776	0.015394313	-0.079800827	-0.72881567	0.15251013	-0.042960708	-0.17853241	-0.032281871	-0.13004441	-0.81373088	0.18707349	-0.027801905	-0.070915445	0.3809995	-0.17728317	-0.43995682	0.37217453	0.072436812	-0.085852323	0.35759326	-0.057793883	-0.3948376	0.34550992	-0.045490847	-0.17282996	0.75886135	-0.24205381	-0.33059753	0.74653819	0.11896735	-0.15282976	0.85550793	-0.15166062	-0.2219935	0.83092663	0.076959669	-0.37613886	0.86028251	-0.10557027	-0.27595037	1.3227096	-0.21098249	-0.30824474	1.3139505	0.1120556	-0.37568695	1.3379074	-0.064621545	-0.41816157	1.0213262	-0.27303223	-0.311203	0.95445394	0.15907159	-0.38587473	0.78999384	-0.33211284	-0.091154538	0.85081055	0.21076908
188	0.748	0.023186256	-0.034064146	-0.1130599	-0.71554327	0.038656144	0.00042845854	-0.10875205	-0.0052636247	-0.1626353	-0.76559443	0.17141063	0.030003133	-0.11768168	0.015471816	-0.079880687	-0.7191528	0.1551891	-0.041895875	-0.17847811	-0.032187098	-0.13017103	-0.8026782	0.19369841	-0.02704718	-0.066226604	0.38091299	-0.17714377	-0.42751707	0.3699379	0.073952238	-0.081919127	0.35755486	-0.057782552	-0.38118677	0.34144255	-0.043904879	-0.16666542	0.75965174	-0.24224155	-0.32305187	0.74454947	0.11911026	-0.14696367	0.8556875	-0.15210537	-0.21512599	0.83017465	0.075819038	-0.371487	0.86026021	-0.10589068	-0.26913325	1.3224548	-0.2114033	-0.30113713	1.3138356	0.11157682	-0.36887165	1.337935	-0.064942982	-0.41014103	1.0203858	-0.27338765	-0.30654962	0.95439212	0.157619	-0.37686851	0.78911127	-0.33205427	-0.087806632	0.84840726	0.20998568
189	0.752	0.023229698	-0.034105238	-0.11308205	-0.71190787	0.040270766	0.00033582291	-0.10838126	-0.0053501996	-0.16271891	-0.7558085	0.17581464	0.030495798	-0.117509	0.015571133	-0.080000127	-0.7092695	0.15802726	-0.04093452	-0.17844227	-0.032111974	-0.13038906	-0.79145912	0.20024671	-0.026067414	-0.061836835	0.38081297	-0.17712633	-0.41502769	0.36762945	0.075637168	-0.077961465	0.35755685	-0.05780451	-0.3672371	0.3373302	-0.042379861	-0.16080612	0.76044899	-0.24248693	-0.31566425	0.74257696	0.11928944	-0.14120053	0.8559739	-0.15254725	-0.20846614	0.82951408	0.074760747	-0.36603527	0.86001847	-0.10612027	-0.26229097	1.3222977	-0.21176859	-0.29408641	1.3137784	0.1110903	-0.36211504	1.3380584	-0.065188514	-0.40211853	1.0195509	-0.2737233	-0.30199436	0.95447787	0.15623034	-0.3676754	0.78835998	-0.33200262	-0.084573561	0.84600463	0.20916784
190	0.756	0.023251112	-0.034141249	-0.11310969	-0.7078242	0.042387782	0.00031890515	-0.10806568	-0.0054773874	-0.16285703	-0.7456619	0.18023132	0.031073726	-0.11734059	0.01567584	-0.080156747	-0.69911876	0.1610054	-0.040053897	-0.1784278	-0.032057252	-0.13066838	-0.77971349	0.20669802	-0.025175446	-0.05782761	0.38066359	-0.17719572	-0.40250398	0.36529776	0.077440631	-0.0740705	0.35757699	-0.057888766	-0.35305313	0.33327129	-0.040949297	-0.15523215	0.76121742	-0.24278095	-0.30838334	0.7406371	0.119458	-0.13553478	0.8563544	-0.15298938	-0.20201452	0.82896887	0.073808715	-0.36025996	0.85972332	-0.10577449	-0.25543187	1.3222431	-0.21208256	-0.28707285	1.3137804	0.11060993	-0.35542852	1.3382676	-0.065367309	-0.39410653	1.0188203	-0.27404644	-0.29749414	0.95465901	0.15486866	-0.35827769	0.7877427	-0.33198735	-0.081430479	0.84360717	0.20831195
191	0.76	0.023251621	-0.034174156	-0.11314061	-0.70329726	0.044859451	0.00040693271	-0.1078074	-0.0056273196	-0.16301704	-0.73502031	0.18472895	0.031770239	-0.11719633	0.015760543	-0.08033612	-0.6886722	0.16410201	-0.039222944	-0.17843126	-0.032017228	-0.13097474	-0.76723717	0.21301986	-0.024542178	-0.054235738	0.38044079	-0.17733717	-0.38992341	0.36300847	0.079242693	-0.070317435	0.35758046	-0.058042608	-0.33869337	0.32941158	-0.039558158	-0.14990153	0.76192963	-0.24312038	-0.30115508	0.73878095	0.11956481	-0.12996384	0.85681221	-0.15343168	-0.19577753	0.82857341	0.072981638	-0.35473386	0.8595293	-0.1048734	-0.2485719	1.3222943	-0.21235354	-0.28006991	1.3138448	0.11014605	-0.34878934	1.338559	-0.065521898	-0.38611181	1.0181884	-0.27437212	-0.29303083	0.95492511	0.15352238	-0.34867712	0.78725949	-0.33201489	-0.078347812	0.84122054	0.20741759
192	0.764	0.023232345	-0.034204907	-0.11317219	-0.69823389	0.047626155	0.00061557598	-0.10760112	-0.0057818059	-0.16317322	-0.72378796	0.18932377	0.03260489	-0.1170778	0.015805592	-0.080511738	-0.67793418	0.16728709	-0.038413035	-0.17844751	-0.031985146	-0.13127102	-0.75418012	0.21919659	-0.024050225	-0.051049324	0.3801373	-0.17755058	-0.37726213	0.36083993	0.080949133	-0.066734695	0.35753278	-0.058241365	-0.32420525	0.32593959	-0.038115289	-0.14478932	0.76256931	-0.24350376	-0.29398484	0.73708392	0.11961463	-0.12449403	0.85733202	-0.15387578	-0.18976078	0.8283645	0.072296811	-0.34969378	0.85950661	-0.10367062	-0.24172288	1.3224499	-0.21259075	-0.27309715	1.3139738	0.10970742	-0.34218645	1.3389336	-0.065683926	-0.37813615	1.0176498	-0.27473216	-0.28859095	0.95527701	0.15218189	-0.3388968	0.78690657	-0.33207033	-0.075319745	0.83885431	0.20649389
193	0.768	0.023196417	-0.034232743	-0.11320187	-0.69245241	0.050709547	0.00098883823	-0.10743724	-0.0059270716	-0.16331067	-0.71200906	0.19397508	0.033541067	-0.11697536	0.01581143	-0.080657521	-0.66693125	0.17053114	-0.037614699	-0.17847357	-0.031955813	-0.13152304	-0.74086511	0.22520767	-0.023509995	-0.048229496	0.37976048	-0.17783434	-0.36453205	0.35887189	0.082529394	-0.063330125	0.3574231	-0.058446227	-0.30967976	0.32303812	-0.036621455	-0.13989147	0.76313179	-0.24392287	-0.28696508	0.73561797	0.11969089	-0.11913385	0.85791027	-0.15432218	-0.18396821	0.82837097	0.071766896	-0.34510346	0.8596575	-0.1023179	-0.23488594	1.3227081	-0.2127971	-0.26621353	1.3141703	0.1093071	-0.33563239	1.339394	-0.065858979	-0.37018638	1.0172031	-0.27515912	-0.28412271	0.95569305	0.15081775	-0.32896871	0.7866787	-0.33212865	-0.072397806	0.8365204	0.20556399
